{"title":"One Direction - Story of my life 1080p HD","uid":9408680,"size":148102766,"categoryP":"video","categoryS":"music_videos","magnet":"?xt=urn:btih:8857b6edda7e474cbce4eff616cf72c26d81420c&amp;dn=One+Direction+-+Story+of+my+life+1080p+HD&amp;tr=udp%3A%2F%2Ftracker.openbittorrent.com%3A80&amp;tr=udp%3A%2F%2Fopen.demonii.com%3A1337&amp;tr=udp%3A%2F%2Ftracker.coppersurfer.tk%3A6969&amp;tr=udp%3A%2F%2Fexodus.desync.com%3A6969","seeders":8,"leechers":0,"uploader":"tlbslicer","files":5,"time":1388227054,"description":"Screenshots : \n &lt;a href=&quot;\nhttp://s29.postimg.org/rr63yp9nb/vlcsnap_1.png&quot; rel=&quot;nofollow&quot; target=&quot;_NEW&quot;&gt;\nhttp://s29.postimg.org/rr63yp9nb/vlcsnap_1.png&lt;/a&gt;\n &lt;a href=&quot;\nhttp://s29.postimg.org/ja6lns4yf/vlcsnap_2.png&quot; rel=&quot;nofollow&quot; target=&quot;_NEW&quot;&gt;\nhttp://s29.postimg.org/ja6lns4yf/vlcsnap_2.png&lt;/a&gt;\n &lt;a href=&quot;\nhttp://s29.postimg.org/ub1qssx7b/vlcsnap_3.png&quot; rel=&quot;nofollow&quot; target=&quot;_NEW&quot;&gt;\nhttp://s29.postimg.org/ub1qssx7b/vlcsnap_3.png&lt;/a&gt;\n\n\n One.Direction.Story.of.my.life.1080p.HDTV.shadowCopy\n\nFormat                                   : MPEG-4\nFormat profile                           : Base Media\nCodec ID                                 : isom\nFile size                                : 136 MiB\nDuration                                 : 4mn 4s\nOverall bit rate mode                    : Variable\nOverall bit rate                         : 4 674 Kbps\n\n\nVideo\nID                                       : 1\nFormat                                   : AVC\nFormat/Info                              : Advanced Video Codec\nFormat profile                           : &lt;a class=&quot;__cf_email__&quot; href=&quot;/cdn-cgi/l/email-protection&quot; data-cfemail=&quot;90ddf1f9fed0dca4bea0&quot;&gt;[email&amp;#160;protected]&lt;/a&gt;&lt;script cf-hash='f9e31' type=&quot;text/javascript&quot;&gt;\n/* &lt;![CDATA[ */!function(){try{var t=&quot;currentScript&quot;in document?document.currentScript:function(){for(var t=document.getElementsByTagName(&quot;script&quot;),e=t.length;e--;)if(t[e].getAttribute(&quot;cf-hash&quot;))return t[e]}();if(t&amp;&amp;t.previousSibling){var e,r,n,i,c=t.previousSibling,a=c.getAttribute(&quot;data-cfemail&quot;);if(a){for(e=&quot;&quot;,r=parseInt(a.substr(0,2),16),n=2;a.length-n;n+=2)i=parseInt(a.substr(n,2),16)^r,e+=String.fromCharCode(i);e=document.createTextNode(e),c.parentNode.replaceChild(e,c)}}}catch(u){}}();/* ]]&gt; */&lt;/script&gt;\nFormat settings, CABAC                   : Yes\nFormat settings, ReFrames                : 4 frames\nFormat settings, GOP                     : M=4, N=28\nCodec ID                                 : avc1\nCodec ID/Info                            : Advanced Video Coding\nDuration                                 : 4mn 4s\nSource duration                          : 4mn 4s\nBit rate                                 : 4 541 Kbps\nWidth                                    : 1 920 pixels\nHeight                                   : 1 088 pixels\nOriginal height                          : 1 080 pixels\nDisplay aspect ratio                     : 16:9\nOriginal display aspect ratio            : 16:9\nFrame rate mode                          : Variable\nFrame rate                               : 46.118 fps\nOriginal frame rate                      : 25.000 fps\nMinimum frame rate                       : 24.986 fps\nMaximum frame rate                       : 50.038 fps\nColor space                              : YUV\nChroma subsampling                       : 4:2:0\nBit depth                                : 8 bits\nScan type                                : MBAFF\nScan order                               : Top Field First\nBits/(Pixel*Frame)                       : 0.047\nStream size                              : 132 MiB (97%)\nSource stream size                       : 133 MiB (97%)\nLanguage                                 : English\nmdhd_Duration                            : 244725\n\nAudio\nID                                       : 2\nFormat                                   : AAC\nFormat/Info                              : Advanced Audio Codec\nFormat profile                           : HE-AAC / LC\nCodec ID                                 : 40\nDuration                                 : 4mn 4s\nSource duration                          : 4mn 4s\nBit rate mode                            : Variable\nBit rate                                 : 127 Kbps\nMaximum bit rate                         : 181 Kbps\nChannel(s)                               : 2 channels\nChannel positions                        : Front: L R\nSampling rate                            : 48.0 KHz / 24.0 KHz\nCompression mode                         : Lossy\nStream size                              : 3.70 MiB (3%)\nSource stream size                       : 3.70 MiB (3%)\nLanguage                                 : English","torrent":{"xt":"urn:btih:8857b6edda7e474cbce4eff616cf72c26d81420c","amp;dn":"One+Direction+-+Story+of+my+life+1080p+HD","amp;tr":["udp%3A%2F%2Ftracker.openbittorrent.com%3A80","udp%3A%2F%2Fopen.demonii.com%3A1337","udp%3A%2F%2Ftracker.coppersurfer.tk%3A6969","udp%3A%2F%2Fexodus.desync.com%3A6969"],"infoHash":"8857b6edda7e474cbce4eff616cf72c26d81420c","infoHashBuffer":{"type":"Buffer","data":[136,87,182,237,218,126,71,76,188,228,239,246,22,207,114,194,109,129,66,12]},"announce":[],"urlList":[]}}